<?xml version="1.0" standalone="no"?>
<!DOCTYPE svg PUBLIC "-//W3C//DTD SVG 20010904//EN"
 "http://www.w3.org/TR/2001/REC-SVG-20010904/DTD/svg10.dtd">
<svg version="1.0" xmlns="http://www.w3.org/2000/svg"
 width="512.000000pt" height="512.000000pt" viewBox="0 0 512.000000 512.000000"
 preserveAspectRatio="xMidYMid meet">

<g transform="translate(0.000000,512.000000) scale(0.100000,-0.100000)"
fill="#00cf5d" stroke="none">
<path d="M575 4816 c-200 -50 -335 -224 -335 -432 0 -83 24 -170 66 -236 61
-96 181 -177 293 -198 75 -14 466 -13 494 1 60 31 76 106 33 156 l-24 28 -244
5 c-225 5 -246 7 -283 27 -89 48 -135 123 -135 220 1 96 52 177 139 220 34 17
122 18 1627 23 1753 6 1612 0 1641 68 11 27 11 37 -1 66 -30 72 115 66 -1641
65 -1220 -1 -1591 -4 -1630 -13z"/>
<path d="M1408 4111 c-25 -22 -32 -37 -32 -65 0 -65 61 -117 120 -102 75 19
100 112 45 167 -40 39 -89 40 -133 0z"/>
<path d="M1799 4111 c-31 -31 -39 -83 -19 -122 28 -50 -3 -49 1027 -49 908 0
960 -1 998 -19 174 -80 180 -316 10 -409 -26 -15 -89 -18 -515 -22 -480 -5
-486 -5 -543 -29 -113 -45 -209 -146 -244 -257 l-17 -54 -133 0 c-74 0 -143
-5 -154 -10 -41 -22 -49 -60 -49 -225 l0 -155 -518 0 c-432 0 -534 -3 -612
-16 -502 -86 -898 -471 -1006 -976 -24 -113 -29 -305 -11 -423 41 -263 153
-488 337 -679 245 -253 545 -381 895 -379 331 1 610 114 849 342 125 121 241
289 291 423 l18 48 158 0 c121 0 159 -3 159 -12 0 -24 97 -207 146 -275 101
-143 267 -293 415 -375 295 -164 661 -198 986 -92 185 60 358 170 503 320 131
135 218 275 278 444 53 150 66 237 66 420 0 145 -3 178 -27 273 -123 495 -506
857 -997 941 -78 13 -180 16 -612 16 l-518 0 0 155 c0 222 -9 235 -159 235
-50 0 -91 3 -91 6 0 22 49 78 88 102 l47 27 485 5 c469 5 487 6 538 27 78 32
158 97 202 164 154 238 40 556 -228 639 -62 19 -96 20 -1039 20 l-975 0 -29
-29z m961 -1256 l0 -95 -200 0 -200 0 0 95 0 95 200 0 200 0 0 -95z m1307
-310 c408 -77 724 -378 826 -785 17 -69 21 -114 21 -240 -1 -135 -4 -168 -27
-252 -153 -573 -732 -905 -1295 -742 -317 92 -587 346 -692 654 -13 37 -35 77
-51 93 l-29 27 -260 0 -260 0 -29 -27 c-16 -16 -38 -56 -51 -93 -67 -197 -218
-393 -392 -511 -428 -291 -990 -232 -1341 140 -123 131 -207 281 -254 459 -24
86 -27 116 -26 257 0 139 3 172 25 255 106 394 416 685 814 764 56 12 334 14
1505 15 1243 1 1448 -1 1516 -14z"/>
<path d="M2054 2326 c-37 -37 -43 -70 -20 -115 27 -50 33 -51 526 -51 493 0
499 1 526 51 23 45 17 78 -20 115 l-34 34 -472 0 -472 0 -34 -34z"/>
<path d="M1034 2315 c-254 -58 -482 -250 -577 -488 -63 -156 -73 -365 -27
-527 78 -271 300 -487 576 -561 59 -16 109 -22 199 -22 150 0 224 17 365 86
94 45 116 62 206 151 91 91 107 112 152 206 69 141 86 214 85 370 0 105 -4
139 -27 213 -47 156 -118 271 -233 377 -86 79 -176 131 -294 172 -85 28 -107
32 -229 34 -89 2 -156 -2 -196 -11z m375 -215 c83 -29 199 -108 256 -173 100
-114 149 -248 149 -407 0 -91 -4 -116 -30 -190 -69 -197 -216 -336 -420 -396
-72 -21 -216 -24 -294 -5 -181 44 -336 172 -414 343 -42 90 -56 156 -56 256 0
271 197 521 462 588 82 21 267 12 347 -16z"/>
<path d="M1095 1949 c-87 -84 -102 -113 -85 -163 23 -71 103 -89 162 -37 l33
29 35 -29 c46 -39 106 -40 143 -3 51 51 39 106 -40 187 -112 113 -146 116
-248 16z"/>
<path d="M798 1653 c-76 -73 -99 -113 -91 -154 3 -15 38 -59 84 -105 73 -72
82 -79 120 -79 34 0 46 6 71 34 26 29 29 40 25 74 -3 24 -16 50 -33 68 l-27
28 32 36 c42 48 42 95 2 136 -23 23 -38 29 -71 29 -38 0 -48 -6 -112 -67z"/>
<path d="M1441 1694 c-43 -36 -44 -99 -2 -146 l29 -33 -29 -33 c-38 -42 -40
-98 -5 -139 20 -23 32 -28 71 -28 44 0 49 3 125 81 72 73 80 85 80 120 0 34
-8 46 -83 121 -74 73 -87 83 -119 83 -25 0 -47 -9 -67 -26z"/>
<path d="M1051 1306 c-29 -16 -50 -52 -51 -87 0 -33 41 -90 108 -150 88 -79
128 -72 235 39 60 63 67 74 67 110 0 55 -32 91 -86 99 -36 5 -45 1 -78 -27
l-37 -33 -22 20 c-48 44 -92 53 -136 29z"/>
<path d="M3598 2096 c-57 -20 -123 -63 -152 -97 -105 -125 -113 -294 -20 -429
l36 -52 -26 -27 c-49 -51 -71 -117 -71 -216 0 -107 23 -163 95 -235 62 -63
126 -92 214 -98 86 -5 133 7 210 53 l58 35 42 -29 c96 -66 240 -80 338 -33
193 94 258 343 132 508 l-36 47 21 26 c12 14 34 51 49 81 37 75 39 199 4 274
-36 80 -85 131 -159 168 -117 57 -237 49 -347 -23 l-46 -31 -47 31 c-86 57
-210 77 -295 47z m173 -209 c112 -74 75 -237 -58 -253 -49 -6 -100 20 -131 66
-44 66 -12 169 63 200 38 16 91 11 126 -13z m477 3 c70 -43 92 -128 49 -191
-62 -93 -189 -87 -239 12 -23 45 -23 86 2 127 42 68 124 91 188 52z m-463
-504 c98 -75 51 -232 -74 -244 -154 -14 -209 189 -71 261 45 23 100 17 145
-17z m470 10 c84 -55 83 -185 -2 -237 -27 -17 -45 -20 -86 -16 -42 4 -56 10
-84 40 -37 42 -48 73 -39 121 18 95 131 144 211 92z"/>
</g>
</svg>
