<?xml version="1.0" standalone="no"?>
<!DOCTYPE svg PUBLIC "-//W3C//DTD SVG 20010904//EN"
 "http://www.w3.org/TR/2001/REC-SVG-20010904/DTD/svg10.dtd">
<svg version="1.0" xmlns="http://www.w3.org/2000/svg"
 width="512.000000pt" height="512.000000pt" viewBox="0 0 512.000000 512.000000"
 preserveAspectRatio="xMidYMid meet">

<g transform="translate(0.000000,512.000000) scale(0.100000,-0.100000)"
fill="#00cf5d" stroke="none">
<path d="M2410 5040 c-267 -17 -513 -74 -762 -176 -294 -120 -338 -160 -338
-313 l0 -80 -102 -80 c-429 -331 -719 -800 -823 -1332 l-17 -86 -47 5 c-43 4
-50 1 -69 -23 -22 -27 -22 -33 -22 -411 l0 -384 -34 -52 c-81 -127 -134 -257
-168 -410 -30 -135 -32 -369 -4 -498 48 -222 145 -416 287 -575 226 -252 497
-386 838 -416 126 -11 126 -11 155 -46 32 -39 104 -77 160 -86 134 -21 273 85
291 222 4 33 -25 246 -99 741 -102 674 -106 696 -131 718 -30 25 -43 27 -79
10 -27 -12 -39 -37 -38 -78 0 -14 46 -325 102 -692 57 -379 98 -678 94 -692
-10 -40 -59 -76 -104 -76 -41 0 -94 35 -104 68 -15 50 -347 2288 -342 2308 8
29 51 71 82 78 40 10 96 -16 115 -54 11 -22 34 -142 61 -320 35 -236 46 -288
64 -309 43 -50 124 -19 124 48 0 53 -89 599 -103 632 -39 93 -131 153 -237
153 -105 0 -186 -52 -233 -148 -15 -31 -32 -56 -36 -56 -5 0 -16 -3 -25 -6
-14 -5 -16 6 -16 81 0 82 -1 88 -29 116 -16 16 -37 29 -45 29 -20 0 -20 13 -2
115 60 342 228 667 480 932 l87 92 42 -30 c85 -60 147 -52 278 32 180 116 371
195 582 241 88 19 132 22 317 22 185 0 229 -3 317 -22 211 -46 402 -125 582
-241 131 -85 193 -92 278 -32 l42 30 86 -91 c258 -275 423 -599 485 -952 14
-81 13 -96 -6 -96 -8 0 -29 -13 -45 -29 -28 -28 -29 -34 -29 -116 0 -75 -2
-86 -16 -81 -9 3 -20 6 -25 6 -4 0 -21 25 -36 56 -47 96 -128 147 -233 148
-116 0 -215 -72 -245 -179 -8 -27 -91 -560 -185 -1183 -124 -821 -169 -1145
-165 -1176 21 -136 159 -240 291 -219 56 9 127 47 160 86 29 34 30 34 154 45
144 13 257 40 378 88 305 124 553 371 678 679 46 112 52 153 28 182 -50 58
-108 30 -144 -69 -134 -371 -442 -640 -815 -711 -121 -23 -205 -29 -205 -14 0
26 312 2083 318 2099 6 16 14 14 88 -15 280 -113 506 -351 609 -640 35 -99 65
-250 65 -329 0 -86 71 -128 125 -73 30 29 32 70 9 222 -25 169 -98 363 -184
488 l-30 44 0 384 c0 379 0 385 -22 412 -19 24 -26 27 -69 23 l-47 -5 -12 66
c-45 252 -160 548 -302 775 -55 88 -161 230 -179 242 -21 12 -70 6 -90 -12
-35 -31 -25 -75 39 -161 206 -281 324 -551 386 -881 15 -82 17 -78 -56 -96
-26 -6 -27 -4 -37 51 -39 204 -98 387 -178 548 -105 210 -208 351 -385 528
l-128 128 0 55 c0 30 4 54 9 54 5 0 31 -18 57 -41 73 -60 96 -71 132 -58 37
13 57 55 44 90 -10 25 -68 78 -179 163 l-63 47 0 78 c0 130 -27 169 -169 241
-211 106 -463 187 -694 224 -79 13 -400 39 -417 34 -3 0 -57 -4 -120 -8z m285
-150 c179 -12 330 -38 494 -85 138 -40 316 -110 408 -161 l63 -36 0 -264 0
-264 -24 -6 c-17 -4 -44 8 -107 49 -185 121 -393 206 -618 254 -114 25 -146
27 -346 28 -191 0 -235 -3 -334 -23 -230 -47 -451 -136 -640 -259 -63 -41 -90
-53 -107 -49 l-24 6 0 266 0 265 133 64 c267 127 525 194 822 215 61 4 115 8
120 8 6 1 77 -3 160 -8z m-1385 -677 l0 -56 -82 -76 c-226 -210 -405 -476
-511 -762 -35 -92 -75 -242 -98 -362 -11 -62 -13 -63 -85 -36 l-21 7 17 94
c76 398 264 760 543 1047 92 94 212 201 227 201 6 0 10 -25 10 -57z m-770
-1451 l155 -47 3 -78 3 -77 -32 -18 c-53 -28 -201 -130 -246 -168 l-43 -37 0
237 c0 130 1 236 3 236 1 0 72 -22 157 -48z m4200 -187 l0 -236 -67 54 c-65
52 -153 111 -222 149 l-32 18 3 77 3 78 150 46 c83 26 153 48 158 48 4 1 7
-105 7 -234z m-715 88 c55 -41 62 19 -125 -1216 -112 -747 -177 -1151 -188
-1169 -44 -75 -175 -56 -196 28 -9 35 331 2279 351 2323 28 59 102 75 158 34z
m-2949 -1261 c86 -574 155 -1045 152 -1047 -10 -10 -207 18 -285 41 -426 123
-724 474 -784 922 -23 169 8 381 80 554 36 86 112 206 186 293 94 110 263 229
407 285 66 26 74 27 80 12 4 -9 78 -486 164 -1060z"/>
</g>
</svg>
