<?xml version="1.0" standalone="no"?>
<!DOCTYPE svg PUBLIC "-//W3C//DTD SVG 20010904//EN"
 "http://www.w3.org/TR/2001/REC-SVG-20010904/DTD/svg10.dtd">
<svg version="1.0" xmlns="http://www.w3.org/2000/svg"
 width="512.000000pt" height="512.000000pt" viewBox="0 0 512.000000 512.000000"
 preserveAspectRatio="xMidYMid meet">

<g transform="translate(0.000000,512.000000) scale(0.100000,-0.100000)"
fill="#00cf5d" stroke="none">
<path d="M1817 4866 c-25 -28 -521 -880 -531 -912 -4 -12 -2 -33 3 -47 7 -17
167 -140 506 -386 500 -364 518 -375 569 -355 8 3 57 62 108 130 51 68 95 124
98 124 6 0 283 -481 278 -484 -2 -2 -32 -20 -68 -41 -94 -55 -110 -72 -110
-116 0 -29 7 -43 29 -62 l29 -24 524 -7 c397 -6 530 -4 550 5 19 8 48 51 101
148 413 749 438 796 432 826 -6 37 -48 75 -82 75 -14 0 -66 -23 -115 -51 -76
-44 -92 -49 -103 -38 -7 8 -203 282 -435 609 -232 327 -431 603 -442 613 -19
16 -66 17 -670 17 l-649 0 -22 -24z m1694 -781 c369 -520 453 -633 481 -645
l35 -15 -156 -285 c-147 -267 -158 -285 -184 -284 -15 0 -164 1 -331 2 l-305
2 5 33 c4 28 -57 140 -511 925 -283 492 -515 896 -515 898 0 2 232 3 517 2
l516 -3 448 -630z m-1328 13 c158 -274 287 -501 287 -506 0 -15 -161 -223
-170 -220 -21 7 -809 584 -810 592 0 5 86 157 192 337 165 283 193 327 203
312 7 -10 141 -242 298 -515z"/>
<path d="M940 3279 l-325 -8 -28 -31 c-53 -59 -33 -101 83 -168 l88 -52 -376
-607 c-214 -347 -377 -621 -380 -638 -3 -25 57 -128 383 -650 213 -341 396
-628 407 -637 19 -17 63 -18 620 -18 l599 0 24 25 25 24 0 644 0 644 -26 24
c-24 23 -33 24 -180 28 -85 2 -154 6 -152 10 4 9 260 455 263 459 2 2 39 -17
83 -42 45 -26 92 -46 109 -46 53 0 95 61 76 113 -19 55 -507 908 -526 922 -24
17 -193 18 -767 4z m818 -426 c82 -148 155 -278 161 -291 10 -20 9 -23 -14
-32 -13 -5 -40 -33 -58 -62 -18 -29 -251 -432 -517 -895 -266 -464 -486 -843
-489 -843 -3 1 -151 234 -329 519 l-323 519 381 617 c210 340 385 627 389 639
5 11 5 33 0 48 -4 16 -7 29 -6 30 2 1 216 8 568 16 l87 2 150 -267z m132
-1693 l0 -520 -446 0 c-251 0 -444 4 -442 9 2 5 135 239 297 520 l294 511 149
0 148 0 0 -520z"/>
<path d="M3854 2485 c-285 -173 -529 -326 -541 -340 -35 -39 -29 -74 26 -157
27 -42 54 -85 60 -97 l12 -21 -241 0 -240 0 0 96 c0 107 -6 126 -49 144 -41
17 -75 6 -104 -33 -34 -45 -506 -843 -523 -883 -8 -18 -11 -41 -7 -51 15 -43
528 -881 554 -905 37 -35 69 -35 108 -2 l31 26 0 109 0 109 840 0 c943 0 886
-4 913 72 8 24 107 307 221 629 113 322 206 595 206 607 0 12 -47 90 -104 174
-364 536 -559 814 -578 825 -13 7 -32 12 -44 13 -11 0 -254 -142 -540 -315z
m692 -142 c93 -136 204 -298 246 -360 l77 -113 -623 0 -623 0 -63 95 c-35 53
-60 98 -57 102 14 13 853 521 863 522 6 1 87 -110 180 -246z m-670 -645 c1015
5 1036 5 1030 -14 -3 -10 -86 -246 -184 -524 l-177 -505 -868 -5 -869 -5 -18
-22 c-17 -22 -19 -20 -185 255 -93 152 -168 282 -168 287 0 8 266 460 318 542
14 21 15 21 50 3 33 -17 87 -18 1071 -12z"/>
</g>
</svg>
