<?xml version="1.0" standalone="no"?>
<!DOCTYPE svg PUBLIC "-//W3C//DTD SVG 20010904//EN"
 "http://www.w3.org/TR/2001/REC-SVG-20010904/DTD/svg10.dtd">
<svg version="1.0" xmlns="http://www.w3.org/2000/svg"
 width="512.000000pt" height="512.000000pt" viewBox="0 0 512.000000 512.000000"
 preserveAspectRatio="xMidYMid meet">

<g transform="translate(0.000000,512.000000) scale(0.100000,-0.100000)"
fill="#00cf5d" stroke="none">
<path d="M4285 5094 c-256 -57 -464 -265 -521 -520 -26 -117 -16 -273 24 -382
102 -275 355 -452 646 -452 114 0 198 20 301 70 171 82 299 233 357 420 30 97
32 281 4 375 -66 220 -237 400 -447 469 -106 36 -257 44 -364 20z m264 -169
c258 -61 436 -325 392 -582 -43 -249 -261 -433 -514 -433 -224 0 -434 165
-492 385 -95 368 245 717 614 630z"/>
<path d="M2440 4866 c-112 -29 -133 -47 -688 -600 -294 -292 -546 -549 -561
-571 -69 -100 -87 -243 -43 -355 32 -81 108 -162 190 -202 61 -30 75 -32 157
-32 69 0 104 6 150 23 56 22 88 51 477 439 l418 416 278 -277 c250 -248 286
-280 348 -309 63 -30 77 -33 164 -33 82 0 103 4 152 27 153 72 245 240 218
402 -20 125 -32 140 -449 559 -212 214 -412 408 -444 432 -106 81 -247 111
-367 81z m181 -172 c52 -15 72 -34 462 -422 240 -239 417 -423 429 -447 63
-121 -23 -279 -160 -293 -96 -9 -101 -6 -448 339 -310 309 -322 319 -359 319
-38 0 -51 -11 -480 -439 -242 -241 -456 -447 -475 -457 -57 -28 -139 -23 -197
12 -88 55 -124 174 -79 264 23 46 1060 1083 1106 1106 72 36 123 41 201 18z"/>
<path d="M3513 3107 l-283 -282 0 -207 c0 -244 10 -288 84 -356 81 -75 56 -73
842 -70 l699 3 61 28 c212 98 267 371 111 544 -46 51 -117 88 -191 102 -37 7
-223 11 -487 11 l-428 0 -3 229 c-3 227 -3 230 -27 255 -17 19 -35 26 -60 26
-33 0 -54 -18 -318 -283z m237 -185 c0 -162 1 -169 23 -190 22 -21 27 -21 532
-24 478 -3 512 -4 548 -22 45 -22 85 -78 94 -130 12 -77 -45 -164 -125 -186
-56 -15 -1333 -14 -1367 2 -47 21 -55 52 -55 225 l0 158 167 167 c92 93 171
168 175 168 5 0 8 -76 8 -168z"/>
<path d="M2243 2746 c-108 -35 -205 -125 -244 -224 -17 -42 -23 -79 -23 -142
-1 -76 3 -92 32 -155 31 -64 62 -99 390 -427 196 -197 354 -359 351 -362 -2
-2 -188 -102 -412 -221 -445 -237 -491 -269 -540 -369 -36 -74 -45 -127 -36
-214 26 -239 260 -403 483 -338 32 10 311 154 629 325 750 404 722 387 788
480 97 136 105 335 19 471 -16 25 -276 291 -577 591 -615 613 -586 589 -738
596 -49 2 -96 -2 -122 -11z m207 -187 c45 -23 1072 -1053 1096 -1099 13 -25
19 -57 19 -110 0 -85 -20 -133 -77 -187 -18 -17 -314 -183 -658 -369 l-624
-339 -61 0 c-51 0 -70 5 -110 30 -118 73 -142 247 -47 338 15 14 239 138 497
276 259 138 476 259 483 268 6 9 12 35 12 57 0 39 -7 47 -400 440 -270 272
-404 413 -415 438 -73 176 114 345 285 257z"/>
<path d="M864 1388 c-617 -619 -806 -814 -823 -850 -51 -108 -50 -231 1 -336
28 -60 109 -140 173 -172 45 -22 62 -25 165 -25 107 0 119 2 170 28 44 23 211
185 853 825 750 750 797 799 797 832 0 32 -18 53 -233 267 -214 215 -235 233
-267 233 -33 0 -82 -47 -836 -802z m986 447 l145 -145 -735 -736 c-404 -404
-755 -747 -779 -761 -95 -57 -226 -21 -281 77 -30 55 -33 138 -6 190 15 30
1492 1520 1506 1520 3 0 70 -65 150 -145z"/>
</g>
</svg>
